<svg width="34" height="33" viewBox="0 0 34 33" fill="none" xmlns="http://www.w3.org/2000/svg">
<circle cx="16.71" cy="16.5" r="16.5" fill="#2D2D2D"/>
<path d="M14.424 22.21C15.576 21.214 16.482 20.398 17.142 19.762C17.814 19.114 18.372 18.442 18.816 17.746C19.26 17.05 19.482 16.354 19.482 15.658C19.482 14.938 19.308 14.374 18.96 13.966C18.624 13.558 18.09 13.354 17.358 13.354C16.65 13.354 16.098 13.582 15.702 14.038C15.318 14.482 15.114 15.082 15.09 15.838H13.11C13.146 14.47 13.554 13.426 14.334 12.706C15.126 11.974 16.128 11.608 17.34 11.608C18.648 11.608 19.668 11.968 20.4 12.688C21.144 13.408 21.516 14.368 21.516 15.568C21.516 16.432 21.294 17.266 20.85 18.07C20.418 18.862 19.896 19.576 19.284 20.212C18.684 20.836 17.916 21.562 16.98 22.39L16.17 23.11H21.876V24.82H13.128V23.326L14.424 22.21Z" fill="white"/>
</svg>
